<svg width="24" height="25" viewBox="0 0 24 25" fill="none" xmlns="http://www.w3.org/2000/svg">
<g clip-path="url(#clip0_8_264)">
<path d="M22.9 8.95672C22.5689 8.78894 22.1975 8.71724 21.8277 8.74976C21.458 8.78229 21.1047 8.91772 20.808 9.14072L18.975 10.5017C18.8495 9.26901 18.2714 8.1266 17.3525 7.29541C16.4336 6.46421 15.2391 6.00327 14 6.00172H13.915L9.793 1.88072C9.51528 1.60106 9.18478 1.37934 8.82068 1.22845C8.45658 1.07756 8.06613 1.00049 7.672 1.00172H1C0.734784 1.00172 0.48043 1.10708 0.292893 1.29462C0.105357 1.48215 0 1.73651 0 2.00172C0 2.26694 0.105357 2.52129 0.292893 2.70883C0.48043 2.89637 0.734784 3.00172 1 3.00172H7.672C7.93706 3.00243 8.19114 3.10773 8.379 3.29472L11.086 6.00172H5C3.6744 6.00331 2.40356 6.53061 1.46622 7.46794C0.528882 8.40528 0.00158786 9.67613 0 11.0017L0 19.0017C0.00158786 20.3273 0.528882 21.5982 1.46622 22.5355C2.40356 23.4728 3.6744 24.0001 5 24.0017H14C15.2391 24.0002 16.4336 23.5392 17.3525 22.708C18.2714 21.8768 18.8495 20.7344 18.975 19.5017L20.805 20.8657C21.1021 21.0886 21.4555 21.2243 21.8254 21.2576C22.1953 21.291 22.5672 21.2207 22.8994 21.0546C23.2316 20.8885 23.511 20.6331 23.7063 20.3172C23.9016 20.0012 24.005 19.6371 24.005 19.2657V10.7447C24.0063 10.3732 23.9034 10.0088 23.7081 9.69275C23.5128 9.37671 23.2329 9.12173 22.9 8.95672V8.95672ZM17 19.0017C17 19.7974 16.6839 20.5604 16.1213 21.123C15.5587 21.6857 14.7956 22.0017 14 22.0017H5C4.20435 22.0017 3.44129 21.6857 2.87868 21.123C2.31607 20.5604 2 19.7974 2 19.0017V11.0017C2 10.2061 2.31607 9.44301 2.87868 8.8804C3.44129 8.31779 4.20435 8.00172 5 8.00172H14C14.7956 8.00172 15.5587 8.31779 16.1213 8.8804C16.6839 9.44301 17 10.2061 17 11.0017V19.0017ZM22 19.2587L19 17.0227V12.9807L22 10.7447V19.2587Z" fill="#111238"/>
</g>
<defs>
<clipPath id="clip0_8_264">
<rect width="24" height="24" fill="white" transform="translate(0 0.00170898)"/>
</clipPath>
</defs>
</svg>
