<svg width="24" height="25" viewBox="0 0 24 25" fill="none" xmlns="http://www.w3.org/2000/svg">
<path d="M6.46504 22.2851C6.24646 22.285 6.03391 22.2133 5.85994 22.081C5.68597 21.9486 5.56014 21.7629 5.50173 21.5523C5.44331 21.3417 5.45552 21.1177 5.53649 20.9146C5.61745 20.7116 5.76271 20.5407 5.95004 20.4281C9.49304 18.3001 9.49304 13.7301 9.49304 11.0001C9.49304 10.2044 9.80911 9.44134 10.3717 8.87873C10.9343 8.31612 11.6974 8.00005 12.493 8.00005C13.2887 8.00005 14.0518 8.31612 14.6144 8.87873C15.177 9.44134 15.493 10.2044 15.493 11.0001C15.493 11.2653 15.3877 11.5196 15.2001 11.7072C15.0126 11.8947 14.7583 12.0001 14.493 12.0001C14.2278 12.0001 13.9735 11.8947 13.7859 11.7072C13.5984 11.5196 13.493 11.2653 13.493 11.0001C13.493 10.7348 13.3877 10.4805 13.2001 10.2929C13.0126 10.1054 12.7583 10.0001 12.493 10.0001C12.2278 10.0001 11.9735 10.1054 11.7859 10.2929C11.5984 10.4805 11.493 10.7348 11.493 11.0001C11.493 13.9471 11.493 19.4341 6.97904 22.1431C6.82372 22.236 6.64607 22.2851 6.46504 22.2851ZM11.428 23.7061C13.71 21.4061 15.043 18.1721 15.389 14.0851C15.4007 13.9539 15.3864 13.8218 15.3469 13.6963C15.3074 13.5707 15.2435 13.4542 15.1588 13.3534C15.0742 13.2526 14.9705 13.1695 14.8537 13.1089C14.7368 13.0482 14.6092 13.0112 14.478 13.0001C14.3468 12.9866 14.2142 12.9997 14.0882 13.0385C13.9621 13.0774 13.8452 13.1412 13.7443 13.2262C13.6434 13.3113 13.5607 13.4157 13.501 13.5333C13.4414 13.651 13.406 13.7794 13.397 13.9111C13.086 17.5681 11.978 20.3111 10.009 22.2921C9.82206 22.4802 9.7175 22.735 9.71834 23.0002C9.71918 23.2655 9.82537 23.5196 10.0135 23.7066C10.2017 23.8935 10.4565 23.9981 10.7217 23.9973C10.987 23.9964 11.2411 23.8902 11.428 23.7021V23.7061ZM16.628 23.5201C17.2346 22.5122 17.7398 21.4466 18.136 20.3391C18.2189 20.0913 18.2015 19.821 18.0877 19.586C17.9738 19.3509 17.7725 19.1697 17.5268 19.0811C17.281 18.9926 17.0104 19.0037 16.7728 19.112C16.5351 19.2204 16.3493 19.4175 16.255 19.6611C15.9029 20.6431 15.4548 21.588 14.917 22.4821C14.8489 22.5944 14.8035 22.7191 14.7836 22.8489C14.7636 22.9788 14.7694 23.1114 14.8006 23.239C14.8319 23.3666 14.888 23.4869 14.9657 23.5928C15.0434 23.6988 15.1412 23.7884 15.2535 23.8566C15.4804 23.9942 15.7527 24.0361 16.0105 23.973C16.1381 23.9417 16.2583 23.8856 16.3643 23.8079C16.4703 23.7302 16.5599 23.6324 16.628 23.5201ZM18.993 17.1911C19.3635 15.1489 19.531 13.0752 19.493 11.0001C19.4921 9.58335 19.0613 8.20028 18.2576 7.03361C17.4539 5.86694 16.3151 4.9716 14.9918 4.46589C13.6684 3.96019 12.2227 3.86793 10.8458 4.20131C9.46888 4.53469 8.22553 5.27801 7.28004 6.33305C7.18796 6.43005 7.11627 6.54454 7.06923 6.66974C7.02218 6.79494 7.00072 6.92831 7.00613 7.06194C7.01153 7.19558 7.04369 7.32678 7.1007 7.44777C7.15771 7.56876 7.23842 7.67708 7.33803 7.76633C7.43765 7.85557 7.55416 7.92393 7.68066 7.96735C7.80716 8.01077 7.94109 8.02838 8.07452 8.01912C8.20795 8.00986 8.33816 7.97394 8.45746 7.91346C8.57675 7.85299 8.6827 7.7692 8.76904 7.66705C9.44432 6.91333 10.3324 6.38226 11.3159 6.14402C12.2995 5.90578 13.3322 5.97159 14.2775 6.33276C15.2228 6.69392 16.0363 7.33344 16.6105 8.16678C17.1846 9.00013 17.4923 9.98807 17.493 11.0001C17.5299 12.9469 17.3752 14.8926 17.031 16.8091C16.9805 17.0692 17.0354 17.3388 17.1835 17.5585C17.3316 17.7783 17.5609 17.9303 17.821 17.9811C17.8846 17.9938 17.9492 18.0001 18.014 18.0001C18.2457 17.9995 18.4699 17.9185 18.6485 17.7709C18.827 17.6234 18.9488 17.4184 18.993 17.1911ZM7.49304 11.0001C7.49275 10.7209 7.51583 10.4423 7.56204 10.1671C7.5919 10.0345 7.59445 9.89734 7.56954 9.76381C7.54462 9.63028 7.49276 9.50322 7.41713 9.3904C7.34149 9.27757 7.24366 9.18133 7.12961 9.10756C7.01555 9.03379 6.88766 8.98403 6.75374 8.96131C6.61982 8.93859 6.48268 8.9434 6.35067 8.97543C6.21867 9.00746 6.09458 9.06606 5.98597 9.14763C5.87735 9.2292 5.7865 9.33205 5.71894 9.44989C5.65139 9.56773 5.60855 9.69811 5.59304 9.83305C5.52703 10.2186 5.49358 10.6089 5.49304 11.0001C5.49304 15.6451 4.14704 18.0001 1.49304 18.0001C1.22783 18.0001 0.973472 18.1054 0.785935 18.2929C0.598399 18.4805 0.493042 18.7348 0.493042 19.0001C0.493042 19.2653 0.598399 19.5196 0.785935 19.7072C0.973472 19.8947 1.22783 20.0001 1.49304 20.0001C5.36204 20.0001 7.49304 16.8001 7.49304 11.0001ZM21.193 23.4141C22.8387 19.4882 23.623 15.2549 23.493 11.0001C23.4977 9.33897 23.1213 7.69896 22.393 6.20605C22.3356 6.08786 22.2554 5.98215 22.1571 5.89494C22.0588 5.80773 21.9443 5.74074 21.8201 5.6978C21.6959 5.65485 21.5644 5.63678 21.4333 5.64464C21.3021 5.65249 21.1737 5.6861 21.0555 5.74355C20.9374 5.801 20.8316 5.88117 20.7444 5.97948C20.6572 6.07779 20.5902 6.19232 20.5473 6.31651C20.5043 6.44071 20.4863 6.57215 20.4941 6.70333C20.502 6.83451 20.5356 6.96286 20.593 7.08105C21.1881 8.30162 21.4959 9.64217 21.493 11.0001C21.6189 14.9688 20.8965 18.9188 19.374 22.5861C19.3198 22.7058 19.2898 22.8351 19.2856 22.9664C19.2814 23.0978 19.3031 23.2287 19.3495 23.3517C19.396 23.4747 19.4662 23.5873 19.5562 23.6831C19.6462 23.7789 19.7542 23.856 19.874 23.9101C20.0036 23.9696 20.1445 24.0003 20.287 24.0001C20.4783 23.9992 20.6653 23.9436 20.8259 23.8397C20.9864 23.7359 21.1139 23.5881 21.193 23.4141ZM3.49304 14.0001V11.0001C3.49569 8.61392 4.44475 6.32627 6.132 4.63901C7.81926 2.95176 10.1069 2.0027 12.493 2.00005C14.4414 1.99356 16.3382 2.62583 17.893 3.80005C18.1052 3.95918 18.3719 4.02751 18.6345 3.99C18.897 3.95249 19.1339 3.81222 19.293 3.60005C19.4522 3.38788 19.5205 3.12118 19.483 2.85863C19.4455 2.59608 19.3052 2.35918 19.093 2.20005C17.1924 0.765473 14.8743 -0.0072348 12.493 5.10545e-05C9.57672 0.00349153 6.78082 1.16352 4.71867 3.22568C2.65651 5.28783 1.49648 8.08373 1.49304 11.0001V14.0001C1.49304 14.2653 1.5984 14.5196 1.78594 14.7072C1.97347 14.8947 2.22783 15.0001 2.49304 15.0001C2.75826 15.0001 3.01261 14.8947 3.20015 14.7072C3.38769 14.5196 3.49304 14.2653 3.49304 14.0001Z" fill="#111238"/>
</svg>
