<svg width="24" height="25" viewBox="0 0 24 25" fill="none" xmlns="http://www.w3.org/2000/svg">
<g clip-path="url(#clip0_8_269)">
<path d="M19 6.00165H14.321C13.9224 5.71757 13.4744 5.51004 13 5.38965V5.00165L16.53 3.34965C16.6747 3.25997 16.7941 3.13483 16.8769 2.98608C16.9598 2.83733 17.0032 2.6699 17.0032 2.49965C17.0032 2.32941 16.9598 2.16198 16.8769 2.01323C16.7941 1.86448 16.6747 1.73934 16.53 1.64965L13.33 0.149653C13.0802 0.0329054 12.8049 -0.01883 12.5297 -0.000750548C12.2545 0.0173289 11.9883 0.104637 11.7559 0.25307C11.5235 0.401503 11.3323 0.606249 11.2002 0.848304C11.068 1.09036 10.9992 1.36188 11 1.63765V5.38965C10.5258 5.50987 10.0782 5.71742 9.68 6.00165H5C3.6744 6.00324 2.40356 6.53054 1.46622 7.46787C0.528882 8.40521 0.00158786 9.67606 0 11.0017L0 21.0017C0 21.7973 0.31607 22.5604 0.87868 23.123C1.44129 23.6856 2.20435 24.0017 3 24.0017H21C21.7956 24.0017 22.5587 23.6856 23.1213 23.123C23.6839 22.5604 24 21.7973 24 21.0017V11.0017C23.9984 9.67606 23.4711 8.40521 22.5338 7.46787C21.5964 6.53054 20.3256 6.00324 19 6.00165V6.00165ZM21.816 10.0017H19.657C18.8618 9.99963 18.0995 9.68373 17.536 9.12265L16.414 8.00165H19C19.6183 8.00422 20.2206 8.19774 20.7247 8.55574C21.2288 8.91375 21.6099 9.41875 21.816 10.0017V10.0017ZM5 8.00165H7.586L6.464 9.12265C5.90047 9.68373 5.13821 9.99963 4.343 10.0017H2.184C2.39008 9.41875 2.77123 8.91375 3.2753 8.55574C3.77937 8.19774 4.38174 8.00422 5 8.00165V8.00165ZM13 22.0017H11V19.0017C11 18.7364 11.1054 18.4821 11.2929 18.2945C11.4804 18.107 11.7348 18.0017 12 18.0017C12.2652 18.0017 12.5196 18.107 12.7071 18.2945C12.8946 18.4821 13 18.7364 13 19.0017V22.0017ZM21 22.0017H15V19.0017C15 18.206 14.6839 17.4429 14.1213 16.8803C13.5587 16.3177 12.7956 16.0017 12 16.0017C11.2044 16.0017 10.4413 16.3177 9.87868 16.8803C9.31607 17.4429 9 18.206 9 19.0017V22.0017H3C2.73478 22.0017 2.48043 21.8963 2.29289 21.7088C2.10536 21.5212 2 21.2669 2 21.0017V12.0017H4.343C4.99982 12.0033 5.65043 11.8746 6.25721 11.6232C6.86398 11.3717 7.41487 11.0024 7.878 10.5367L10.586 7.82965C10.9611 7.45471 11.4697 7.24408 12 7.24408C12.5303 7.24408 13.0389 7.45471 13.414 7.82965L16.122 10.5367C16.5851 11.0024 17.136 11.3717 17.7428 11.6232C18.3496 11.8746 19.0002 12.0033 19.657 12.0017H22V21.0017C22 21.2669 21.8946 21.5212 21.7071 21.7088C21.5196 21.8963 21.2652 22.0017 21 22.0017ZM7 15.0017C7 15.2669 6.89464 15.5212 6.70711 15.7088C6.51957 15.8963 6.26522 16.0017 6 16.0017H5C4.73478 16.0017 4.48043 15.8963 4.29289 15.7088C4.10536 15.5212 4 15.2669 4 15.0017C4 14.7364 4.10536 14.4821 4.29289 14.2945C4.48043 14.107 4.73478 14.0017 5 14.0017H6C6.26522 14.0017 6.51957 14.107 6.70711 14.2945C6.89464 14.4821 7 14.7364 7 15.0017ZM7 19.0017C7 19.2669 6.89464 19.5212 6.70711 19.7088C6.51957 19.8963 6.26522 20.0017 6 20.0017H5C4.73478 20.0017 4.48043 19.8963 4.29289 19.7088C4.10536 19.5212 4 19.2669 4 19.0017C4 18.7364 4.10536 18.4821 4.29289 18.2945C4.48043 18.107 4.73478 18.0017 5 18.0017H6C6.26522 18.0017 6.51957 18.107 6.70711 18.2945C6.89464 18.4821 7 18.7364 7 19.0017ZM20 15.0017C20 15.2669 19.8946 15.5212 19.7071 15.7088C19.5196 15.8963 19.2652 16.0017 19 16.0017H18C17.7348 16.0017 17.4804 15.8963 17.2929 15.7088C17.1054 15.5212 17 15.2669 17 15.0017C17 14.7364 17.1054 14.4821 17.2929 14.2945C17.4804 14.107 17.7348 14.0017 18 14.0017H19C19.2652 14.0017 19.5196 14.107 19.7071 14.2945C19.8946 14.4821 20 14.7364 20 15.0017ZM20 19.0017C20 19.2669 19.8946 19.5212 19.7071 19.7088C19.5196 19.8963 19.2652 20.0017 19 20.0017H18C17.7348 20.0017 17.4804 19.8963 17.2929 19.7088C17.1054 19.5212 17 19.2669 17 19.0017C17 18.7364 17.1054 18.4821 17.2929 18.2945C17.4804 18.107 17.7348 18.0017 18 18.0017H19C19.2652 18.0017 19.5196 18.107 19.7071 18.2945C19.8946 18.4821 20 18.7364 20 19.0017ZM14 12.0017C14 12.3972 13.8827 12.7839 13.6629 13.1128C13.4432 13.4417 13.1308 13.698 12.7654 13.8494C12.3999 14.0008 11.9978 14.0404 11.6098 13.9632C11.2219 13.8861 10.8655 13.6956 10.5858 13.4159C10.3061 13.1362 10.1156 12.7798 10.0384 12.3918C9.96126 12.0039 10.0009 11.6017 10.1522 11.2363C10.3036 10.8708 10.56 10.5585 10.8889 10.3387C11.2178 10.119 11.6044 10.0017 12 10.0017C12.5304 10.0017 13.0391 10.2124 13.4142 10.5874C13.7893 10.9625 14 11.4712 14 12.0017Z" fill="#111238"/>
</g>
<defs>
<clipPath id="clip0_8_269">
<rect width="24" height="24" fill="white" transform="translate(0 0.00170898)"/>
</clipPath>
</defs>
</svg>
